<?xml version="1.0" encoding="utf-8"?>
<!-- Generator: Adobe Illustrator 24.1.0, SVG Export Plug-In . SVG Version: 6.00 Build 0)  -->
<svg version="1.1" id="Layer_1" xmlns="http://www.w3.org/2000/svg" xmlns:xlink="http://www.w3.org/1999/xlink" x="0px" y="0px"
	 viewBox="0 0 512 512" style="enable-background:new 0 0 512 512;" xml:space="preserve">
<style type="text/css">
	.st0{fill:#FFB14E;}
	.st1{fill:#FF9356;}
	.st2{fill:#FFD86C;}
	.st3{fill:#EC407F;}
	.st4{fill:#CE1370;}
	.st5{fill:#DD2478;}
	.st6{fill:none;stroke:#9B1B5B;stroke-width:21;stroke-miterlimit:10;}
	.st7{fill:none;stroke:#E52070;stroke-width:21;stroke-miterlimit:10;}
</style>
<polygon class="st0" points="475.7,128 475.7,384 256,512 219.6,219.6 "/>
<polygon class="st1" points="256,219.6 256,512 36.3,384 36.3,128 "/>
<polygon class="st0" points="365.9,64 303.1,165.3 146.1,192 36.3,128 256,0 "/>
<polygon class="st2" points="475.7,128 256,256 146.1,192 365.9,64 "/>
<polygon class="st3" points="382.5,74.2 160.9,202.2 130.4,184 352,56 "/>
<polygon class="st4" points="130.6,183.4 130.6,439.3 161.6,456.6 161.6,200.7 "/>
<polygon class="st3" points="130.4,74.2 352,202.2 382.5,184 160.9,56 "/>
<polygon class="st5" points="382.3,183.4 382.3,439.3 351.3,456.6 351.3,200.7 "/>
<g>
	<path class="st6" d="M698.7,137.4c0,0-57.8-88.1-99-87.4c-36.7,0.6-50.8,87.9-15,96C618.6,153.7,698.7,137.4,698.7,137.4z"/>
	<path class="st7" d="M698.7,134.4c0,0-57.8-88.1-99-87.4c-36.7,0.6-50.8,87.9-15,96C618.6,150.7,698.7,134.4,698.7,134.4z"/>
	<path class="st6" d="M730.7,137.4c0,0,57.8-88.1,99-87.4c36.7,0.6,50.8,87.9,15,96C810.7,153.7,730.7,137.4,730.7,137.4z"/>
	<path class="st7" d="M730.7,134.4c0,0,57.8-88.1,99-87.4c36.7,0.6,50.8,87.9,15,96C810.7,150.7,730.7,134.4,730.7,134.4z"/>
</g>
</svg>
