<svg xmlns="http://www.w3.org/2000/svg" width="113.664" height="40" viewBox="0 0 113.664 40">
  <g id="logo_solar" data-name="logo solar" transform="translate(-259.996 -160)">
    <path id="Path_3100" data-name="Path 3100" d="M1779.98,1160c4.033,0,7.057,1.837,10.989,4s6.7,3.7,7.992,7.135,1.014,4.861,1,8.865.293,7.812-2.236,10.913-2.766,2.865-6.755,5.087-7.016,3.97-10.989,4-8.2-2.525-10.989-4-5.877-2.938-7.512-6.22S1760,1183.925,1760,1180s-.067-7.442,1.745-10.175,4.168-4.169,7.246-5.825S1775.948,1160,1779.98,1160Z" transform="translate(-1500 -1000)" fill="#f0000a"/>
    <path id="Path_3103" data-name="Path 3103" d="M16.294,26.28a11.35,11.35,0,0,1-3.612-.588,8.809,8.809,0,0,1-3.024-1.68l1.4-2.352A12.062,12.062,0,0,0,13.676,23.1a7.018,7.018,0,0,0,2.534.49,3.2,3.2,0,0,0,1.764-.42,1.353,1.353,0,0,0,.644-1.2,1.2,1.2,0,0,0-.756-1.148,16.324,16.324,0,0,0-2.464-.84q-1.428-.392-2.436-.756a6.252,6.252,0,0,1-1.624-.826,2.826,2.826,0,0,1-.9-1.064,3.4,3.4,0,0,1-.28-1.442,4.565,4.565,0,0,1,.434-2.016,4.392,4.392,0,0,1,1.218-1.526,5.638,5.638,0,0,1,1.834-.966,7.45,7.45,0,0,1,2.282-.336,9.811,9.811,0,0,1,3.094.476,7.541,7.541,0,0,1,2.646,1.54l-1.512,2.268a8.786,8.786,0,0,0-2.17-1.232,5.932,5.932,0,0,0-2.086-.392,3.019,3.019,0,0,0-1.6.392,1.364,1.364,0,0,0-.644,1.26,1.218,1.218,0,0,0,.154.644,1.356,1.356,0,0,0,.49.448,4.783,4.783,0,0,0,.882.378q.546.182,1.358.378,1.512.392,2.59.784a7.051,7.051,0,0,1,1.764.9,3.19,3.19,0,0,1,1.008,1.162,3.569,3.569,0,0,1,.322,1.582,4.083,4.083,0,0,1-1.6,3.4A6.876,6.876,0,0,1,16.294,26.28Z" transform="translate(264 161)" fill="#fff"/>
    <path id="Path_3102" data-name="Path 3102" d="M7.252,26.28a11.35,11.35,0,0,1-3.612-.588,8.809,8.809,0,0,1-3.024-1.68l1.4-2.352A12.062,12.062,0,0,0,4.634,23.1a7.018,7.018,0,0,0,2.534.49,3.2,3.2,0,0,0,1.764-.42,1.353,1.353,0,0,0,.644-1.2A1.2,1.2,0,0,0,8.82,20.82a16.324,16.324,0,0,0-2.464-.84q-1.428-.392-2.436-.756A6.252,6.252,0,0,1,2.3,18.4a2.826,2.826,0,0,1-.9-1.064,3.4,3.4,0,0,1-.28-1.442,4.565,4.565,0,0,1,.434-2.016A4.392,4.392,0,0,1,2.772,12.35a5.638,5.638,0,0,1,1.834-.966,7.451,7.451,0,0,1,2.282-.336,9.811,9.811,0,0,1,3.094.476,7.54,7.54,0,0,1,2.646,1.54l-1.512,2.268A8.786,8.786,0,0,0,8.946,14.1a5.932,5.932,0,0,0-2.086-.392,3.019,3.019,0,0,0-1.6.392,1.364,1.364,0,0,0-.644,1.26A1.218,1.218,0,0,0,4.774,16a1.356,1.356,0,0,0,.49.448,4.783,4.783,0,0,0,.882.378q.546.182,1.358.378,1.512.392,2.59.784a7.051,7.051,0,0,1,1.764.9,3.19,3.19,0,0,1,1.008,1.162,3.569,3.569,0,0,1,.322,1.582,4.083,4.083,0,0,1-1.6,3.4A6.876,6.876,0,0,1,7.252,26.28Zm15.148,0a8.054,8.054,0,0,1-3.22-.616A7.232,7.232,0,0,1,16.758,24a7.354,7.354,0,0,1-1.526-2.422,8.159,8.159,0,0,1,0-5.8,7.354,7.354,0,0,1,1.526-2.422,7.232,7.232,0,0,1,2.422-1.666,8.054,8.054,0,0,1,3.22-.616,7.953,7.953,0,0,1,3.206.616,7.267,7.267,0,0,1,2.408,1.666A7.354,7.354,0,0,1,29.54,15.78a8.159,8.159,0,0,1,0,5.8A7.472,7.472,0,0,1,28.028,24a7.081,7.081,0,0,1-2.408,1.666A8.054,8.054,0,0,1,22.4,26.28Zm-3.836-7.588a5.112,5.112,0,0,0,.294,1.778,4.344,4.344,0,0,0,.812,1.386,3.629,3.629,0,0,0,1.218.91,3.711,3.711,0,0,0,3.024,0,3.629,3.629,0,0,0,1.218-.91,4.313,4.313,0,0,0,.812-1.4,5.23,5.23,0,0,0,.294-1.792,5.145,5.145,0,0,0-.294-1.764,4.313,4.313,0,0,0-.812-1.4,3.629,3.629,0,0,0-1.218-.91,3.574,3.574,0,0,0-1.512-.322,3.448,3.448,0,0,0-1.512.336,3.8,3.8,0,0,0-1.218.924,4.314,4.314,0,0,0-.812,1.4A5.145,5.145,0,0,0,18.564,18.692Zm14-13.132h3.752V21.3a1.852,1.852,0,0,0,.392,1.26,1.409,1.409,0,0,0,1.12.448,2.811,2.811,0,0,0,.742-.112,5.018,5.018,0,0,0,.77-.28l.5,2.856a7.256,7.256,0,0,1-1.764.56,9.623,9.623,0,0,1-1.82.2,3.757,3.757,0,0,1-2.73-.938,3.556,3.556,0,0,1-.966-2.674ZM45.472,26.28a5.566,5.566,0,0,1-1.988-.35,4.779,4.779,0,0,1-1.6-.98,4.561,4.561,0,0,1-1.05-1.47,4.452,4.452,0,0,1-.378-1.848,4.071,4.071,0,0,1,.462-1.918,4.4,4.4,0,0,1,1.288-1.5,6.385,6.385,0,0,1,1.974-.966,8.611,8.611,0,0,1,2.52-.35,10.858,10.858,0,0,1,1.918.168,7.812,7.812,0,0,1,1.666.476V16.7a2.941,2.941,0,0,0-.826-2.24,3.434,3.434,0,0,0-2.45-.784,6.489,6.489,0,0,0-2.3.42,10.662,10.662,0,0,0-2.3,1.232l-1.148-2.38a10.832,10.832,0,0,1,6.1-1.876A7.152,7.152,0,0,1,52.29,12.63a5.694,5.694,0,0,1,1.75,4.494v4.564a1.319,1.319,0,0,0,.21.84.92.92,0,0,0,.686.28V26a8.353,8.353,0,0,1-1.652.2,2.5,2.5,0,0,1-1.638-.476,2.046,2.046,0,0,1-.714-1.26l-.084-.812a6.493,6.493,0,0,1-2.38,1.96A6.834,6.834,0,0,1,45.472,26.28Zm1.064-2.744a4.888,4.888,0,0,0,1.806-.336,3.278,3.278,0,0,0,1.33-.9,1.348,1.348,0,0,0,.616-1.064V19.56a9.186,9.186,0,0,0-1.456-.406A7.842,7.842,0,0,0,47.32,19a4.008,4.008,0,0,0-2.38.658,1.976,1.976,0,0,0-.924,1.666,2,2,0,0,0,.728,1.582A2.642,2.642,0,0,0,46.536,23.536Zm19.74-8.96a7.4,7.4,0,0,0-3.052.658,3.852,3.852,0,0,0-1.932,1.89V26H57.54V11.328h3.444v3.136a6.689,6.689,0,0,1,.924-1.358,7.125,7.125,0,0,1,1.148-1.05A5.323,5.323,0,0,1,64.3,11.37a3.439,3.439,0,0,1,1.218-.238h.462a1.5,1.5,0,0,1,.294.028Z" transform="translate(307.384 161)" fill="#fff"/>
  </g>
</svg>
